<svg width="621" height="251" viewBox="0 0 621 251" fill="none" xmlns="http://www.w3.org/2000/svg">
<path d="M6.88299 44.851C-2.29433 35.6737 -2.29433 20.7943 6.88299 11.617C16.0603 2.43969 30.9397 2.43969 40.117 11.617L237.4 208.9C246.577 218.077 246.577 232.956 237.4 242.134C228.222 251.311 213.343 251.311 204.166 242.134L6.88299 44.851Z" fill="black"/>
<path d="M573.266 125.5C573.266 112.521 583.787 102 596.766 102C609.745 102 620.266 112.521 620.266 125.5V227.5C620.266 240.479 609.745 251 596.766 251C583.787 251 573.266 240.479 573.266 227.5V125.5Z" fill="black"/>
<path d="M449.266 23.5C449.266 10.5213 459.787 0 472.766 0C485.745 0 496.266 10.5213 496.266 23.5V125.5C496.266 138.479 485.745 149 472.766 149C459.787 149 449.266 138.479 449.266 125.5V23.5Z" fill="black"/>
<path d="M472.766 149C459.787 149 449.266 138.479 449.266 125.5C449.266 112.521 459.787 102 472.766 102H596.766C609.745 102 620.266 112.521 620.266 125.5C620.266 138.479 609.745 149 596.766 149H472.766Z" fill="black"/>
<path d="M472.766 47C459.787 47 449.266 36.4787 449.266 23.5C449.266 10.5213 459.787 0 472.766 0H596.766C609.745 0 620.266 10.5213 620.266 23.5C620.266 36.4787 609.745 47 596.766 47H472.766Z" fill="black"/>
<path d="M245.883 42.851C236.706 33.6737 236.706 18.7943 245.883 9.61701C255.06 0.439687 269.94 0.439687 279.117 9.61701L343.101 73.6011C352.278 82.7784 352.278 97.6578 343.101 106.835C333.924 116.012 319.044 116.012 309.867 106.835L245.883 42.851Z" fill="black"/>
<path d="M201.266 230C201.266 218.402 210.668 209 222.266 209H599.266C610.864 209 620.266 218.402 620.266 230C620.266 241.598 610.864 251 599.266 251H222.266C210.668 251 201.266 241.598 201.266 230Z" fill="black"/>
</svg>
